<svg width="1440" height="1018" viewBox="0 0 1440 1018" fill="none" xmlns="http://www.w3.org/2000/svg">
<path d="M1434.62 724.989C1425.93 759.292 1401.62 787.953 1365.02 810.397C1328.41 832.842 1279.54 849.051 1221.8 858.446C1106.32 877.237 955.47 868.759 796.634 828.536C637.798 788.314 501.095 723.974 408.477 652.486C362.168 616.742 326.899 579.225 305.388 542.063C283.88 504.903 276.142 468.128 284.829 433.825C293.515 399.522 317.823 370.862 354.426 348.418C391.031 325.972 439.905 309.764 497.645 300.368C613.125 281.578 763.974 290.056 922.81 330.278C1081.65 370.501 1218.35 434.841 1310.97 506.328C1357.28 542.073 1392.55 579.589 1414.06 616.752C1435.56 653.911 1443.3 690.687 1434.62 724.989Z" stroke="url(#paint0_linear_0_1)"/>
<path d="M1695.22 790.984C1682.58 840.896 1647.22 882.581 1594 915.212C1540.78 947.844 1469.74 971.401 1385.83 985.055C1218.01 1012.36 998.805 1000.04 768.004 941.594C537.203 883.148 338.553 789.655 203.956 685.765C136.656 633.819 85.3899 579.29 54.1173 525.262C22.8462 471.237 11.5824 417.743 24.2219 367.831C36.8615 317.918 72.2277 276.233 125.443 243.602C178.661 210.97 249.701 187.413 333.613 173.759C501.434 146.452 720.639 158.774 951.44 217.22C1182.24 275.667 1380.89 369.16 1515.49 473.05C1582.79 524.995 1634.05 579.524 1665.33 633.552C1696.6 687.578 1707.86 741.071 1695.22 790.984Z" stroke="url(#paint1_linear_0_1)"/>
<path d="M2012.33 871.287C1994.88 940.194 1946.06 997.727 1872.63 1042.75C1799.2 1087.78 1701.18 1120.28 1585.43 1139.11C1353.92 1176.79 1051.53 1159.79 733.167 1079.16C414.799 998.543 140.771 869.576 -44.9081 726.259C-137.748 654.6 -208.481 579.369 -251.632 504.818C-294.782 430.271 -310.337 356.435 -292.887 287.528C-275.438 218.621 -226.616 161.087 -153.186 116.062C-79.7537 71.0345 18.2601 38.5353 134.016 19.6998C365.527 -17.9708 667.909 -0.971175 986.277 79.6503C1304.65 160.272 1578.67 289.238 1764.35 432.555C1857.19 504.214 1927.92 579.446 1971.08 653.996C2014.23 728.544 2029.78 802.38 2012.33 871.287Z" stroke="url(#paint2_linear_0_1)"/>
<defs>
<linearGradient id="paint0_linear_0_1" x1="324.646" y1="413.959" x2="1320.71" y2="827.188" gradientUnits="userSpaceOnUse">
<stop stop-color="#484848"/>
<stop offset="0.491388" stop-color="#484848" stop-opacity="0.36"/>
<stop offset="1" stop-color="#484848"/>
</linearGradient>
<linearGradient id="paint1_linear_0_1" x1="82.2929" y1="339.023" x2="1529.5" y2="939.416" gradientUnits="userSpaceOnUse">
<stop stop-color="#484848"/>
<stop offset="0.491388" stop-color="#484848" stop-opacity="0.36"/>
<stop offset="1" stop-color="#484848"/>
</linearGradient>
<linearGradient id="paint2_linear_0_1" x1="-212.605" y1="247.839" x2="1783.56" y2="1075.98" gradientUnits="userSpaceOnUse">
<stop stop-color="#484848"/>
<stop offset="0.491388" stop-color="#484848" stop-opacity="0.36"/>
<stop offset="1" stop-color="#484848"/>
</linearGradient>
</defs>
</svg>
